<?xml version="1.0" standalone="no"?>
<!DOCTYPE svg PUBLIC "-//W3C//DTD SVG 20010904//EN"
 "http://www.w3.org/TR/2001/REC-SVG-20010904/DTD/svg10.dtd">
<svg version="1.0" xmlns="http://www.w3.org/2000/svg"
 width="512.000000pt" height="512.000000pt" viewBox="0 0 512.000000 512.000000"
 preserveAspectRatio="xMidYMid meet">
<metadata>
Created by potrace 1.14, written by Peter Selinger 2001-2017
</metadata>
<g transform="translate(0.000000,512.000000) scale(0.100000,-0.100000)"
fill="#000000" stroke="none">
<path d="M2187 4843 c-57 -19 -128 -79 -161 -136 -14 -24 -58 -168 -101 -332
-42 -159 -116 -436 -165 -615 -165 -611 -191 -709 -195 -732 -3 -13 -11 -45
-19 -73 -25 -83 -64 -228 -71 -262 l-7 -33 -171 -1 c-95 0 -187 -2 -204 -4
-151 -16 -300 -58 -426 -121 -228 -115 -427 -313 -542 -542 -31 -62 -81 -198
-91 -247 -28 -135 -33 -193 -30 -322 2 -78 6 -145 9 -150 3 -5 8 -28 12 -52
10 -70 62 -217 107 -305 143 -276 395 -495 682 -591 188 -63 65 -59 1711 -61
906 -2 1524 1 1560 7 278 43 522 170 704 365 169 181 278 398 315 630 14 86
15 305 2 383 -49 299 -218 578 -459 763 -163 124 -376 214 -557 235 -25 3 -54
6 -65 8 -11 2 -30 4 -41 4 -17 1 34 57 210 234 l231 232 70 230 c38 127 70
232 71 235 0 3 13 46 28 95 32 103 29 145 -16 178 -35 26 -66 24 -184 -12 -55
-17 -196 -60 -314 -96 -138 -42 -223 -74 -239 -88 -13 -12 -219 -217 -457
-454 -239 -238 -434 -431 -434 -428 0 3 27 108 61 233 34 125 63 234 65 242 2
8 11 42 20 75 9 33 18 67 19 75 6 24 94 352 105 390 6 19 39 142 74 273 51
192 62 250 60 299 -5 106 -65 198 -162 247 -20 10 -138 46 -262 79 -656 177
-650 176 -743 145z m297 -232 c99 -27 278 -75 396 -107 118 -31 225 -64 237
-71 12 -8 27 -30 33 -49 10 -30 4 -61 -55 -281 -123 -456 -196 -727 -235 -873
-61 -229 -103 -388 -150 -560 -17 -63 -33 -122 -35 -130 -2 -8 -25 -97 -52
-197 l-48 -183 -518 0 c-489 0 -518 1 -513 18 2 9 15 55 27 100 25 95 11 88
131 61 82 -19 128 8 142 83 9 51 -29 89 -113 115 -40 12 -75 24 -78 26 -2 3
11 61 29 131 22 83 38 126 47 126 7 0 71 -16 142 -35 71 -19 141 -35 154 -35
14 0 39 13 56 28 41 37 45 99 9 138 -24 25 -32 28 -210 74 -122 32 -116 14
-69 186 l30 111 67 -19 c82 -22 111 -22 138 0 44 35 55 82 29 131 -15 30 -35
40 -127 66 l-56 16 30 112 c46 170 38 158 95 140 81 -27 125 -28 155 -3 48 37
53 106 12 152 -9 9 -45 24 -82 34 -37 9 -71 20 -75 24 -5 4 6 64 24 134 24 94
37 126 48 126 9 0 72 -16 141 -35 152 -42 171 -43 210 -7 77 71 28 160 -103
186 -51 10 -193 50 -200 56 -10 8 39 185 60 218 15 24 45 40 77 41 10 1 100
-21 200 -48z m1869 -1033 c-8 -29 -30 -100 -48 -158 -18 -58 -38 -123 -44
-145 -6 -23 -24 -54 -41 -70 l-29 -28 -140 140 -140 140 28 27 c17 16 60 36
112 52 46 14 131 41 189 59 58 18 110 34 117 34 9 1 8 -13 -4 -51z m-440 -406
l138 -138 -436 -437 -437 -437 -198 0 -198 0 29 112 c17 62 32 115 35 118 29
33 920 920 924 920 3 0 67 -62 143 -138z m-2503 -719 c0 -5 -12 -46 -25 -93
-14 -47 -28 -96 -30 -110 -3 -14 -9 -38 -13 -55 l-8 -30 -175 -5 c-157 -5
-179 -7 -222 -29 -113 -55 -165 -146 -182 -316 -3 -33 -7 -78 -10 -100 -2 -22
-7 -67 -10 -100 -4 -33 -8 -76 -11 -95 -2 -19 -6 -73 -10 -120 -5 -76 -3 -90
18 -130 13 -26 41 -57 66 -75 l44 -30 218 0 218 0 44 30 c25 17 53 49 66 75
21 40 23 54 17 130 -3 47 -7 101 -10 120 -2 19 -7 62 -10 95 -3 33 -7 78 -10
100 -2 22 -7 68 -10 101 -2 34 -7 68 -9 75 -2 8 -7 26 -10 42 l-6 27 1369 0
c964 0 1377 3 1394 11 26 12 57 57 57 84 0 26 -30 83 -48 92 -9 4 -158 10
-331 13 l-314 5 149 149 149 148 155 -5 c216 -7 342 -41 504 -136 254 -149
428 -399 481 -695 21 -111 12 -301 -18 -418 -61 -234 -217 -451 -419 -582
-113 -73 -200 -109 -373 -153 -47 -12 -2981 -14 -3040 -2 -27 5 -61 11 -75 14
-154 28 -356 140 -487 271 -199 200 -296 447 -288 734 5 196 54 353 161 518
149 228 391 387 667 437 77 14 377 20 377 8z m-297 -513 c30 -24 45 -63 52
-140 3 -30 7 -75 10 -100 3 -25 7 -72 10 -105 7 -68 12 -119 21 -187 l5 -48
-151 0 -152 0 6 43 c3 23 8 69 11 102 3 33 8 78 10 100 3 22 7 69 11 105 13
138 23 193 41 212 37 41 87 48 126 18z"/>
</g>
</svg>
